<svg version="1.1" id="Ebene_1" xmlns="http://www.w3.org/2000/svg" xmlns:xlink="http://www.w3.org/1999/xlink" x="0px" y="0px"
	 viewBox="0 0 720 360" style="enable-background:new 0 0 720 360;" xml:space="preserve">
	<g id="Logo_rechteckig">
		<g>
			<g>
				<path d="M636.4,301.1H83.6c-0.3,0-0.5-0.2-0.5-0.5v-241c0-0.3,0.2-0.5,0.5-0.5h552.7c0.3,0,0.5,0.2,0.5,0.5v241
					C636.9,300.8,636.6,301.1,636.4,301.1z"/>
				<g>
					<rect x="287.5" y="120.4" fill="#FFFFFF" width="31.3" height="119.9"/>
				</g>
				<g>
					<polygon fill="#FFFFFF" points="267.4,240.3 146.5,240.3 207,125.1 				"/>
				</g>
				<g>
					<polygon fill="#FFFFFF" points="573.5,240.3 452.6,240.3 513,125.1 				"/>
				</g>
				<g>
					<path fill="#FFFFFF" d="M401.9,203.8l-11,1.1l37.6,35.4h-84V119.7h53.3c7.5,0,15.1,1.9,22.6,5.7c14.6,7.1,21.5,19,21.5,36.5
						c0,14.9-5,25.7-15.4,33.1C419.7,199.7,411.3,202.6,401.9,203.8z"/>
				</g>
			</g>
		</g>
	</g>
</svg>
